<mxfile host="app.diagrams.net" modified="2021-03-17T09:53:29.837Z" agent="5.0 (Windows NT 10.0; Win64; x64) AppleWebKit/537.36 (KHTML, like Gecko) Chrome/89.0.4389.82 Safari/537.36" etag="xsOqB-Vv_nTlSQAolmd1" version="14.4.8" type="github">
  <diagram id="EjAZyQlA9bi8Vssz96Cd" name="Page-1">
    <mxGraphModel dx="2568" dy="450" grid="1" gridSize="10" guides="1" tooltips="1" connect="1" arrows="1" fold="1" page="1" pageScale="1" pageWidth="850" pageHeight="1100" math="0" shadow="0">
      <root>
        <mxCell id="0" />
        <mxCell id="1" parent="0" />
        <mxCell id="7hNnC6W6OJ4gPRdMk0Qo-4" style="edgeStyle=orthogonalEdgeStyle;rounded=0;orthogonalLoop=1;jettySize=auto;html=1;exitX=0.5;exitY=1;exitDx=0;exitDy=0;" parent="1" source="7hNnC6W6OJ4gPRdMk0Qo-1" target="7hNnC6W6OJ4gPRdMk0Qo-2" edge="1">
          <mxGeometry relative="1" as="geometry" />
        </mxCell>
        <mxCell id="7hNnC6W6OJ4gPRdMk0Qo-1" value="Main Layout - Header Nav" style="rounded=0;whiteSpace=wrap;html=1;fillColor=#f0a30a;strokeColor=#BD7000;fontColor=#ffffff;" parent="1" vertex="1">
          <mxGeometry x="65" y="280" width="120" height="60" as="geometry" />
        </mxCell>
        <mxCell id="7hNnC6W6OJ4gPRdMk0Qo-9" style="edgeStyle=orthogonalEdgeStyle;rounded=0;orthogonalLoop=1;jettySize=auto;html=1;exitX=0.5;exitY=1;exitDx=0;exitDy=0;entryX=0.5;entryY=0;entryDx=0;entryDy=0;" parent="1" source="7hNnC6W6OJ4gPRdMk0Qo-2" target="7hNnC6W6OJ4gPRdMk0Qo-6" edge="1">
          <mxGeometry relative="1" as="geometry" />
        </mxCell>
        <mxCell id="7hNnC6W6OJ4gPRdMk0Qo-10" style="edgeStyle=orthogonalEdgeStyle;rounded=0;orthogonalLoop=1;jettySize=auto;html=1;exitX=0.5;exitY=1;exitDx=0;exitDy=0;" parent="1" source="7hNnC6W6OJ4gPRdMk0Qo-2" target="7hNnC6W6OJ4gPRdMk0Qo-7" edge="1">
          <mxGeometry relative="1" as="geometry" />
        </mxCell>
        <mxCell id="7hNnC6W6OJ4gPRdMk0Qo-11" style="edgeStyle=orthogonalEdgeStyle;rounded=0;orthogonalLoop=1;jettySize=auto;html=1;exitX=0.5;exitY=1;exitDx=0;exitDy=0;entryX=0.5;entryY=0;entryDx=0;entryDy=0;" parent="1" source="7hNnC6W6OJ4gPRdMk0Qo-2" target="7hNnC6W6OJ4gPRdMk0Qo-8" edge="1">
          <mxGeometry relative="1" as="geometry" />
        </mxCell>
        <mxCell id="7hNnC6W6OJ4gPRdMk0Qo-16" style="edgeStyle=orthogonalEdgeStyle;rounded=0;orthogonalLoop=1;jettySize=auto;html=1;exitX=1;exitY=0.5;exitDx=0;exitDy=0;entryX=0;entryY=0.5;entryDx=0;entryDy=0;" parent="1" source="7hNnC6W6OJ4gPRdMk0Qo-2" target="7hNnC6W6OJ4gPRdMk0Qo-13" edge="1">
          <mxGeometry relative="1" as="geometry" />
        </mxCell>
        <mxCell id="7hNnC6W6OJ4gPRdMk0Qo-44" style="edgeStyle=orthogonalEdgeStyle;rounded=0;orthogonalLoop=1;jettySize=auto;html=1;exitX=0;exitY=0.5;exitDx=0;exitDy=0;entryX=1;entryY=0.5;entryDx=0;entryDy=0;" parent="1" source="7hNnC6W6OJ4gPRdMk0Qo-2" target="7hNnC6W6OJ4gPRdMk0Qo-43" edge="1">
          <mxGeometry relative="1" as="geometry" />
        </mxCell>
        <mxCell id="7hNnC6W6OJ4gPRdMk0Qo-2" value="Main Layout - Footer Nav" style="rounded=0;whiteSpace=wrap;html=1;fillColor=#e3c800;strokeColor=#B09500;fontColor=#ffffff;" parent="1" vertex="1">
          <mxGeometry x="65" y="370" width="120" height="60" as="geometry" />
        </mxCell>
        <mxCell id="7hNnC6W6OJ4gPRdMk0Qo-30" style="edgeStyle=orthogonalEdgeStyle;rounded=0;orthogonalLoop=1;jettySize=auto;html=1;exitX=0.5;exitY=1;exitDx=0;exitDy=0;entryX=0.5;entryY=0;entryDx=0;entryDy=0;" parent="1" source="7hNnC6W6OJ4gPRdMk0Qo-5" target="7hNnC6W6OJ4gPRdMk0Qo-26" edge="1">
          <mxGeometry relative="1" as="geometry" />
        </mxCell>
        <mxCell id="7hNnC6W6OJ4gPRdMk0Qo-5" value="Login Page UI" style="rounded=0;whiteSpace=wrap;html=1;fillColor=#f0a30a;strokeColor=#BD7000;fontColor=#ffffff;" parent="1" vertex="1">
          <mxGeometry x="360" y="40" width="120" height="60" as="geometry" />
        </mxCell>
        <mxCell id="7hNnC6W6OJ4gPRdMk0Qo-14" style="edgeStyle=orthogonalEdgeStyle;rounded=0;orthogonalLoop=1;jettySize=auto;html=1;exitX=0.5;exitY=1;exitDx=0;exitDy=0;" parent="1" source="7hNnC6W6OJ4gPRdMk0Qo-6" target="7hNnC6W6OJ4gPRdMk0Qo-12" edge="1">
          <mxGeometry relative="1" as="geometry" />
        </mxCell>
        <mxCell id="7hNnC6W6OJ4gPRdMk0Qo-75" style="edgeStyle=orthogonalEdgeStyle;rounded=0;orthogonalLoop=1;jettySize=auto;html=1;exitX=0.5;exitY=1;exitDx=0;exitDy=0;entryX=0.5;entryY=0;entryDx=0;entryDy=0;" parent="1" source="7hNnC6W6OJ4gPRdMk0Qo-6" target="7hNnC6W6OJ4gPRdMk0Qo-69" edge="1">
          <mxGeometry relative="1" as="geometry" />
        </mxCell>
        <mxCell id="7hNnC6W6OJ4gPRdMk0Qo-6" value="Home page" style="rounded=0;whiteSpace=wrap;html=1;fillColor=#f0a30a;strokeColor=#BD7000;fontColor=#ffffff;" parent="1" vertex="1">
          <mxGeometry x="-10" y="470" width="120" height="60" as="geometry" />
        </mxCell>
        <mxCell id="7hNnC6W6OJ4gPRdMk0Qo-7" value="Our Stores (Map page)" style="rounded=0;whiteSpace=wrap;html=1;" parent="1" vertex="1">
          <mxGeometry x="-175" y="470" width="120" height="60" as="geometry" />
        </mxCell>
        <mxCell id="7hNnC6W6OJ4gPRdMk0Qo-8" value="Contact Us" style="rounded=0;whiteSpace=wrap;html=1;" parent="1" vertex="1">
          <mxGeometry x="-330" y="470" width="120" height="60" as="geometry" />
        </mxCell>
        <mxCell id="7hNnC6W6OJ4gPRdMk0Qo-25" style="edgeStyle=orthogonalEdgeStyle;rounded=0;orthogonalLoop=1;jettySize=auto;html=1;exitX=1;exitY=0.5;exitDx=0;exitDy=0;entryX=0;entryY=0.5;entryDx=0;entryDy=0;" parent="1" source="7hNnC6W6OJ4gPRdMk0Qo-12" target="7hNnC6W6OJ4gPRdMk0Qo-23" edge="1">
          <mxGeometry relative="1" as="geometry" />
        </mxCell>
        <mxCell id="7hNnC6W6OJ4gPRdMk0Qo-12" value="Recipe Details" style="rounded=0;whiteSpace=wrap;html=1;" parent="1" vertex="1">
          <mxGeometry x="-10" y="660" width="120" height="60" as="geometry" />
        </mxCell>
        <mxCell id="7hNnC6W6OJ4gPRdMk0Qo-51" value="" style="edgeStyle=orthogonalEdgeStyle;rounded=0;orthogonalLoop=1;jettySize=auto;html=1;" parent="1" source="7hNnC6W6OJ4gPRdMk0Qo-13" target="7hNnC6W6OJ4gPRdMk0Qo-50" edge="1">
          <mxGeometry relative="1" as="geometry" />
        </mxCell>
        <mxCell id="7hNnC6W6OJ4gPRdMk0Qo-59" value="" style="edgeStyle=orthogonalEdgeStyle;rounded=0;orthogonalLoop=1;jettySize=auto;html=1;" parent="1" source="7hNnC6W6OJ4gPRdMk0Qo-13" target="7hNnC6W6OJ4gPRdMk0Qo-58" edge="1">
          <mxGeometry relative="1" as="geometry" />
        </mxCell>
        <mxCell id="7hNnC6W6OJ4gPRdMk0Qo-113" style="edgeStyle=orthogonalEdgeStyle;rounded=0;orthogonalLoop=1;jettySize=auto;html=1;exitX=0.5;exitY=1;exitDx=0;exitDy=0;" parent="1" source="7hNnC6W6OJ4gPRdMk0Qo-13" target="7hNnC6W6OJ4gPRdMk0Qo-112" edge="1">
          <mxGeometry relative="1" as="geometry" />
        </mxCell>
        <mxCell id="7hNnC6W6OJ4gPRdMk0Qo-13" value="Profile page" style="rounded=0;whiteSpace=wrap;html=1;" parent="1" vertex="1">
          <mxGeometry x="360" y="370" width="120" height="60" as="geometry" />
        </mxCell>
        <mxCell id="7hNnC6W6OJ4gPRdMk0Qo-34" style="edgeStyle=orthogonalEdgeStyle;rounded=0;orthogonalLoop=1;jettySize=auto;html=1;exitX=0.5;exitY=1;exitDx=0;exitDy=0;entryX=0.5;entryY=0;entryDx=0;entryDy=0;" parent="1" source="7hNnC6W6OJ4gPRdMk0Qo-18" target="7hNnC6W6OJ4gPRdMk0Qo-33" edge="1">
          <mxGeometry relative="1" as="geometry" />
        </mxCell>
        <mxCell id="7hNnC6W6OJ4gPRdMk0Qo-84" style="edgeStyle=orthogonalEdgeStyle;rounded=0;orthogonalLoop=1;jettySize=auto;html=1;exitX=1;exitY=0.5;exitDx=0;exitDy=0;entryX=0;entryY=0.5;entryDx=0;entryDy=0;" parent="1" source="7hNnC6W6OJ4gPRdMk0Qo-18" target="7hNnC6W6OJ4gPRdMk0Qo-82" edge="1">
          <mxGeometry relative="1" as="geometry" />
        </mxCell>
        <mxCell id="7hNnC6W6OJ4gPRdMk0Qo-90" style="edgeStyle=orthogonalEdgeStyle;rounded=0;orthogonalLoop=1;jettySize=auto;html=1;exitX=0;exitY=0.5;exitDx=0;exitDy=0;entryX=1;entryY=0.5;entryDx=0;entryDy=0;" parent="1" source="7hNnC6W6OJ4gPRdMk0Qo-18" target="7hNnC6W6OJ4gPRdMk0Qo-88" edge="1">
          <mxGeometry relative="1" as="geometry">
            <Array as="points">
              <mxPoint x="220" y="230" />
              <mxPoint x="220" y="580" />
            </Array>
          </mxGeometry>
        </mxCell>
        <mxCell id="7hNnC6W6OJ4gPRdMk0Qo-18" value="User table DB" style="rounded=0;whiteSpace=wrap;html=1;" parent="1" vertex="1">
          <mxGeometry x="360" y="200" width="120" height="60" as="geometry" />
        </mxCell>
        <mxCell id="7hNnC6W6OJ4gPRdMk0Qo-21" value="Post Recipe" style="rounded=0;whiteSpace=wrap;html=1;" parent="1" vertex="1">
          <mxGeometry x="360" y="660" width="120" height="60" as="geometry" />
        </mxCell>
        <mxCell id="7hNnC6W6OJ4gPRdMk0Qo-23" value="Recipe Details Functionalities" style="rounded=0;whiteSpace=wrap;html=1;" parent="1" vertex="1">
          <mxGeometry x="190" y="660" width="120" height="60" as="geometry" />
        </mxCell>
        <mxCell id="7hNnC6W6OJ4gPRdMk0Qo-31" style="edgeStyle=orthogonalEdgeStyle;rounded=0;orthogonalLoop=1;jettySize=auto;html=1;exitX=0.5;exitY=1;exitDx=0;exitDy=0;entryX=0.5;entryY=0;entryDx=0;entryDy=0;" parent="1" source="7hNnC6W6OJ4gPRdMk0Qo-26" target="7hNnC6W6OJ4gPRdMk0Qo-18" edge="1">
          <mxGeometry relative="1" as="geometry" />
        </mxCell>
        <mxCell id="7hNnC6W6OJ4gPRdMk0Qo-38" style="edgeStyle=orthogonalEdgeStyle;rounded=0;orthogonalLoop=1;jettySize=auto;html=1;exitX=1;exitY=0.5;exitDx=0;exitDy=0;entryX=0.5;entryY=0;entryDx=0;entryDy=0;" parent="1" source="7hNnC6W6OJ4gPRdMk0Qo-26" target="7hNnC6W6OJ4gPRdMk0Qo-37" edge="1">
          <mxGeometry relative="1" as="geometry" />
        </mxCell>
        <mxCell id="7hNnC6W6OJ4gPRdMk0Qo-26" value="Sign up page UI" style="rounded=0;whiteSpace=wrap;html=1;" parent="1" vertex="1">
          <mxGeometry x="360" y="120" width="120" height="60" as="geometry" />
        </mxCell>
        <mxCell id="7hNnC6W6OJ4gPRdMk0Qo-35" style="edgeStyle=orthogonalEdgeStyle;rounded=0;orthogonalLoop=1;jettySize=auto;html=1;exitX=0.5;exitY=1;exitDx=0;exitDy=0;entryX=0.5;entryY=0;entryDx=0;entryDy=0;" parent="1" source="7hNnC6W6OJ4gPRdMk0Qo-33" target="7hNnC6W6OJ4gPRdMk0Qo-13" edge="1">
          <mxGeometry relative="1" as="geometry" />
        </mxCell>
        <mxCell id="7hNnC6W6OJ4gPRdMk0Qo-40" style="edgeStyle=orthogonalEdgeStyle;rounded=0;orthogonalLoop=1;jettySize=auto;html=1;exitX=1;exitY=0.5;exitDx=0;exitDy=0;entryX=0;entryY=0.5;entryDx=0;entryDy=0;" parent="1" source="7hNnC6W6OJ4gPRdMk0Qo-33" target="7hNnC6W6OJ4gPRdMk0Qo-39" edge="1">
          <mxGeometry relative="1" as="geometry" />
        </mxCell>
        <mxCell id="7hNnC6W6OJ4gPRdMk0Qo-33" value="Add functions on login and signup" style="rounded=0;whiteSpace=wrap;html=1;" parent="1" vertex="1">
          <mxGeometry x="360" y="280" width="120" height="60" as="geometry" />
        </mxCell>
        <mxCell id="7hNnC6W6OJ4gPRdMk0Qo-41" style="edgeStyle=orthogonalEdgeStyle;rounded=0;orthogonalLoop=1;jettySize=auto;html=1;exitX=0.5;exitY=1;exitDx=0;exitDy=0;entryX=0.5;entryY=0;entryDx=0;entryDy=0;" parent="1" source="7hNnC6W6OJ4gPRdMk0Qo-37" target="7hNnC6W6OJ4gPRdMk0Qo-39" edge="1">
          <mxGeometry relative="1" as="geometry" />
        </mxCell>
        <mxCell id="7hNnC6W6OJ4gPRdMk0Qo-37" value="Forgot password Page" style="rounded=0;whiteSpace=wrap;html=1;" parent="1" vertex="1">
          <mxGeometry x="530" y="200" width="120" height="60" as="geometry" />
        </mxCell>
        <mxCell id="7hNnC6W6OJ4gPRdMk0Qo-39" value="Add function on forgot pass" style="rounded=0;whiteSpace=wrap;html=1;" parent="1" vertex="1">
          <mxGeometry x="528" y="281" width="120" height="60" as="geometry" />
        </mxCell>
        <mxCell id="7hNnC6W6OJ4gPRdMk0Qo-55" value="" style="edgeStyle=orthogonalEdgeStyle;rounded=0;orthogonalLoop=1;jettySize=auto;html=1;" parent="1" source="7hNnC6W6OJ4gPRdMk0Qo-42" target="7hNnC6W6OJ4gPRdMk0Qo-54" edge="1">
          <mxGeometry relative="1" as="geometry" />
        </mxCell>
        <mxCell id="7hNnC6W6OJ4gPRdMk0Qo-42" value="Recipe page" style="rounded=0;whiteSpace=wrap;html=1;" parent="1" vertex="1">
          <mxGeometry x="-710" y="470" width="120" height="60" as="geometry" />
        </mxCell>
        <mxCell id="7hNnC6W6OJ4gPRdMk0Qo-46" value="" style="edgeStyle=orthogonalEdgeStyle;rounded=0;orthogonalLoop=1;jettySize=auto;html=1;" parent="1" source="7hNnC6W6OJ4gPRdMk0Qo-43" target="7hNnC6W6OJ4gPRdMk0Qo-42" edge="1">
          <mxGeometry relative="1" as="geometry" />
        </mxCell>
        <mxCell id="7hNnC6W6OJ4gPRdMk0Qo-63" style="edgeStyle=orthogonalEdgeStyle;rounded=0;orthogonalLoop=1;jettySize=auto;html=1;entryX=0.5;entryY=0;entryDx=0;entryDy=0;" parent="1" source="7hNnC6W6OJ4gPRdMk0Qo-43" target="7hNnC6W6OJ4gPRdMk0Qo-62" edge="1">
          <mxGeometry relative="1" as="geometry" />
        </mxCell>
        <mxCell id="7hNnC6W6OJ4gPRdMk0Qo-74" style="edgeStyle=orthogonalEdgeStyle;rounded=0;orthogonalLoop=1;jettySize=auto;html=1;exitX=0;exitY=0.5;exitDx=0;exitDy=0;entryX=0.5;entryY=0;entryDx=0;entryDy=0;" parent="1" source="7hNnC6W6OJ4gPRdMk0Qo-43" target="7hNnC6W6OJ4gPRdMk0Qo-68" edge="1">
          <mxGeometry relative="1" as="geometry" />
        </mxCell>
        <mxCell id="7hNnC6W6OJ4gPRdMk0Qo-43" value="Secondary Layout Header" style="rounded=0;whiteSpace=wrap;html=1;" parent="1" vertex="1">
          <mxGeometry x="-510" y="370" width="120" height="60" as="geometry" />
        </mxCell>
        <mxCell id="7hNnC6W6OJ4gPRdMk0Qo-52" value="" style="edgeStyle=orthogonalEdgeStyle;rounded=0;orthogonalLoop=1;jettySize=auto;html=1;" parent="1" source="7hNnC6W6OJ4gPRdMk0Qo-50" target="7hNnC6W6OJ4gPRdMk0Qo-21" edge="1">
          <mxGeometry relative="1" as="geometry" />
        </mxCell>
        <mxCell id="7hNnC6W6OJ4gPRdMk0Qo-53" style="edgeStyle=orthogonalEdgeStyle;rounded=0;orthogonalLoop=1;jettySize=auto;html=1;exitX=0;exitY=0.5;exitDx=0;exitDy=0;" parent="1" source="7hNnC6W6OJ4gPRdMk0Qo-50" target="7hNnC6W6OJ4gPRdMk0Qo-23" edge="1">
          <mxGeometry relative="1" as="geometry" />
        </mxCell>
        <mxCell id="7hNnC6W6OJ4gPRdMk0Qo-56" style="edgeStyle=orthogonalEdgeStyle;rounded=0;orthogonalLoop=1;jettySize=auto;html=1;exitX=0;exitY=0.5;exitDx=0;exitDy=0;entryX=1;entryY=0.5;entryDx=0;entryDy=0;" parent="1" source="7hNnC6W6OJ4gPRdMk0Qo-50" target="7hNnC6W6OJ4gPRdMk0Qo-54" edge="1">
          <mxGeometry relative="1" as="geometry">
            <Array as="points">
              <mxPoint x="340" y="580" />
              <mxPoint x="340" y="790" />
            </Array>
          </mxGeometry>
        </mxCell>
        <mxCell id="7hNnC6W6OJ4gPRdMk0Qo-50" value="Recipe table DB" style="rounded=0;whiteSpace=wrap;html=1;" parent="1" vertex="1">
          <mxGeometry x="360" y="550" width="120" height="60" as="geometry" />
        </mxCell>
        <mxCell id="7hNnC6W6OJ4gPRdMk0Qo-54" value="Recipe page functionalities" style="rounded=0;whiteSpace=wrap;html=1;" parent="1" vertex="1">
          <mxGeometry x="-710" y="760" width="120" height="60" as="geometry" />
        </mxCell>
        <mxCell id="7hNnC6W6OJ4gPRdMk0Qo-61" value="" style="edgeStyle=orthogonalEdgeStyle;rounded=0;orthogonalLoop=1;jettySize=auto;html=1;" parent="1" source="7hNnC6W6OJ4gPRdMk0Qo-58" target="7hNnC6W6OJ4gPRdMk0Qo-60" edge="1">
          <mxGeometry relative="1" as="geometry" />
        </mxCell>
        <mxCell id="7hNnC6W6OJ4gPRdMk0Qo-58" value="Edit profile page" style="rounded=0;whiteSpace=wrap;html=1;" parent="1" vertex="1">
          <mxGeometry x="528" y="370" width="120" height="60" as="geometry" />
        </mxCell>
        <mxCell id="7hNnC6W6OJ4gPRdMk0Qo-60" value="Edit profile Functionalities" style="rounded=0;whiteSpace=wrap;html=1;" parent="1" vertex="1">
          <mxGeometry x="690" y="370" width="120" height="60" as="geometry" />
        </mxCell>
        <mxCell id="7hNnC6W6OJ4gPRdMk0Qo-67" style="edgeStyle=orthogonalEdgeStyle;rounded=0;orthogonalLoop=1;jettySize=auto;html=1;exitX=0.5;exitY=1;exitDx=0;exitDy=0;" parent="1" source="7hNnC6W6OJ4gPRdMk0Qo-62" target="7hNnC6W6OJ4gPRdMk0Qo-66" edge="1">
          <mxGeometry relative="1" as="geometry" />
        </mxCell>
        <mxCell id="7hNnC6W6OJ4gPRdMk0Qo-78" style="edgeStyle=orthogonalEdgeStyle;rounded=0;orthogonalLoop=1;jettySize=auto;html=1;exitX=1;exitY=0.5;exitDx=0;exitDy=0;entryX=0;entryY=0.5;entryDx=0;entryDy=0;" parent="1" source="7hNnC6W6OJ4gPRdMk0Qo-62" target="7hNnC6W6OJ4gPRdMk0Qo-77" edge="1">
          <mxGeometry relative="1" as="geometry" />
        </mxCell>
        <mxCell id="7hNnC6W6OJ4gPRdMk0Qo-62" value="Cart page" style="rounded=0;whiteSpace=wrap;html=1;" parent="1" vertex="1">
          <mxGeometry x="-510" y="470" width="120" height="60" as="geometry" />
        </mxCell>
        <mxCell id="7hNnC6W6OJ4gPRdMk0Qo-66" value="Checkout page" style="rounded=0;whiteSpace=wrap;html=1;" parent="1" vertex="1">
          <mxGeometry x="-510" y="640" width="120" height="60" as="geometry" />
        </mxCell>
        <mxCell id="7hNnC6W6OJ4gPRdMk0Qo-87" value="" style="edgeStyle=orthogonalEdgeStyle;rounded=0;orthogonalLoop=1;jettySize=auto;html=1;" parent="1" source="7hNnC6W6OJ4gPRdMk0Qo-68" target="7hNnC6W6OJ4gPRdMk0Qo-72" edge="1">
          <mxGeometry relative="1" as="geometry" />
        </mxCell>
        <mxCell id="7hNnC6W6OJ4gPRdMk0Qo-68" value="Products page" style="rounded=0;whiteSpace=wrap;html=1;" parent="1" vertex="1">
          <mxGeometry x="-900" y="470" width="120" height="60" as="geometry" />
        </mxCell>
        <mxCell id="7hNnC6W6OJ4gPRdMk0Qo-71" style="edgeStyle=orthogonalEdgeStyle;rounded=0;orthogonalLoop=1;jettySize=auto;html=1;exitX=0.5;exitY=1;exitDx=0;exitDy=0;entryX=0.5;entryY=0;entryDx=0;entryDy=0;" parent="1" source="7hNnC6W6OJ4gPRdMk0Qo-69" target="7hNnC6W6OJ4gPRdMk0Qo-70" edge="1">
          <mxGeometry relative="1" as="geometry" />
        </mxCell>
        <mxCell id="7hNnC6W6OJ4gPRdMk0Qo-69" value="Product Details page" style="rounded=0;whiteSpace=wrap;html=1;" parent="1" vertex="1">
          <mxGeometry x="-175" y="660" width="120" height="60" as="geometry" />
        </mxCell>
        <mxCell id="7hNnC6W6OJ4gPRdMk0Qo-107" style="edgeStyle=orthogonalEdgeStyle;rounded=0;orthogonalLoop=1;jettySize=auto;html=1;exitX=0.5;exitY=1;exitDx=0;exitDy=0;entryX=0.5;entryY=0;entryDx=0;entryDy=0;" parent="1" source="7hNnC6W6OJ4gPRdMk0Qo-70" target="7hNnC6W6OJ4gPRdMk0Qo-106" edge="1">
          <mxGeometry relative="1" as="geometry" />
        </mxCell>
        <mxCell id="7hNnC6W6OJ4gPRdMk0Qo-115" style="edgeStyle=orthogonalEdgeStyle;rounded=0;orthogonalLoop=1;jettySize=auto;html=1;exitX=1;exitY=0.5;exitDx=0;exitDy=0;entryX=0;entryY=0.5;entryDx=0;entryDy=0;" parent="1" source="7hNnC6W6OJ4gPRdMk0Qo-70" target="7hNnC6W6OJ4gPRdMk0Qo-114" edge="1">
          <mxGeometry relative="1" as="geometry" />
        </mxCell>
        <mxCell id="7hNnC6W6OJ4gPRdMk0Qo-70" value="Product details functionalities" style="rounded=0;whiteSpace=wrap;html=1;" parent="1" vertex="1">
          <mxGeometry x="-175" y="840" width="120" height="60" as="geometry" />
        </mxCell>
        <mxCell id="7hNnC6W6OJ4gPRdMk0Qo-72" value="Product page functionalities" style="rounded=0;whiteSpace=wrap;html=1;" parent="1" vertex="1">
          <mxGeometry x="-900" y="650" width="120" height="60" as="geometry" />
        </mxCell>
        <mxCell id="7hNnC6W6OJ4gPRdMk0Qo-79" style="edgeStyle=orthogonalEdgeStyle;rounded=0;orthogonalLoop=1;jettySize=auto;html=1;exitX=0.5;exitY=1;exitDx=0;exitDy=0;entryX=0.5;entryY=0;entryDx=0;entryDy=0;" parent="1" source="7hNnC6W6OJ4gPRdMk0Qo-73" target="7hNnC6W6OJ4gPRdMk0Qo-72" edge="1">
          <mxGeometry relative="1" as="geometry" />
        </mxCell>
        <mxCell id="7hNnC6W6OJ4gPRdMk0Qo-85" style="edgeStyle=orthogonalEdgeStyle;rounded=0;orthogonalLoop=1;jettySize=auto;html=1;exitX=0.5;exitY=1;exitDx=0;exitDy=0;entryX=0;entryY=0.5;entryDx=0;entryDy=0;" parent="1" source="7hNnC6W6OJ4gPRdMk0Qo-73" target="7hNnC6W6OJ4gPRdMk0Qo-70" edge="1">
          <mxGeometry relative="1" as="geometry" />
        </mxCell>
        <mxCell id="7hNnC6W6OJ4gPRdMk0Qo-89" style="edgeStyle=orthogonalEdgeStyle;rounded=0;orthogonalLoop=1;jettySize=auto;html=1;exitX=1;exitY=0.5;exitDx=0;exitDy=0;" parent="1" source="7hNnC6W6OJ4gPRdMk0Qo-73" target="7hNnC6W6OJ4gPRdMk0Qo-88" edge="1">
          <mxGeometry relative="1" as="geometry" />
        </mxCell>
        <mxCell id="7hNnC6W6OJ4gPRdMk0Qo-73" value="Product table DB" style="rounded=0;whiteSpace=wrap;html=1;" parent="1" vertex="1">
          <mxGeometry x="-1090" y="550" width="120" height="60" as="geometry" />
        </mxCell>
        <mxCell id="7hNnC6W6OJ4gPRdMk0Qo-77" value="Cart functionalities" style="rounded=0;whiteSpace=wrap;html=1;" parent="1" vertex="1">
          <mxGeometry x="-330" y="710" width="120" height="60" as="geometry" />
        </mxCell>
        <mxCell id="7hNnC6W6OJ4gPRdMk0Qo-82" value="Get Reward Cust Page" style="rounded=0;whiteSpace=wrap;html=1;" parent="1" vertex="1">
          <mxGeometry x="530" y="550" width="120" height="60" as="geometry" />
        </mxCell>
        <mxCell id="7hNnC6W6OJ4gPRdMk0Qo-94" style="edgeStyle=orthogonalEdgeStyle;rounded=0;orthogonalLoop=1;jettySize=auto;html=1;exitX=0.5;exitY=1;exitDx=0;exitDy=0;entryX=0.25;entryY=0;entryDx=0;entryDy=0;" parent="1" source="7hNnC6W6OJ4gPRdMk0Qo-88" target="7hNnC6W6OJ4gPRdMk0Qo-70" edge="1">
          <mxGeometry relative="1" as="geometry">
            <Array as="points">
              <mxPoint x="-270" y="620" />
              <mxPoint x="-190" y="620" />
              <mxPoint x="-190" y="725" />
              <mxPoint x="-145" y="725" />
            </Array>
          </mxGeometry>
        </mxCell>
        <mxCell id="7hNnC6W6OJ4gPRdMk0Qo-97" style="edgeStyle=orthogonalEdgeStyle;rounded=0;orthogonalLoop=1;jettySize=auto;html=1;exitX=0.5;exitY=1;exitDx=0;exitDy=0;" parent="1" source="7hNnC6W6OJ4gPRdMk0Qo-88" target="7hNnC6W6OJ4gPRdMk0Qo-95" edge="1">
          <mxGeometry relative="1" as="geometry" />
        </mxCell>
        <mxCell id="7hNnC6W6OJ4gPRdMk0Qo-88" value="Order table DB" style="rounded=0;whiteSpace=wrap;html=1;" parent="1" vertex="1">
          <mxGeometry x="-330" y="550" width="120" height="60" as="geometry" />
        </mxCell>
        <mxCell id="7hNnC6W6OJ4gPRdMk0Qo-96" style="edgeStyle=orthogonalEdgeStyle;rounded=0;orthogonalLoop=1;jettySize=auto;html=1;exitX=1;exitY=0.5;exitDx=0;exitDy=0;entryX=0;entryY=0.5;entryDx=0;entryDy=0;" parent="1" source="7hNnC6W6OJ4gPRdMk0Qo-95" target="7hNnC6W6OJ4gPRdMk0Qo-70" edge="1">
          <mxGeometry relative="1" as="geometry">
            <Array as="points">
              <mxPoint x="-200" y="660" />
              <mxPoint x="-200" y="870" />
            </Array>
          </mxGeometry>
        </mxCell>
        <mxCell id="7hNnC6W6OJ4gPRdMk0Qo-98" style="edgeStyle=orthogonalEdgeStyle;rounded=0;orthogonalLoop=1;jettySize=auto;html=1;exitX=0.5;exitY=1;exitDx=0;exitDy=0;entryX=0.5;entryY=0;entryDx=0;entryDy=0;" parent="1" source="7hNnC6W6OJ4gPRdMk0Qo-95" target="7hNnC6W6OJ4gPRdMk0Qo-77" edge="1">
          <mxGeometry relative="1" as="geometry" />
        </mxCell>
        <mxCell id="7hNnC6W6OJ4gPRdMk0Qo-95" value="Cart table DB" style="rounded=0;whiteSpace=wrap;html=1;" parent="1" vertex="1">
          <mxGeometry x="-330" y="630" width="120" height="60" as="geometry" />
        </mxCell>
        <mxCell id="7hNnC6W6OJ4gPRdMk0Qo-109" value="" style="edgeStyle=orthogonalEdgeStyle;rounded=0;orthogonalLoop=1;jettySize=auto;html=1;" parent="1" source="7hNnC6W6OJ4gPRdMk0Qo-106" target="7hNnC6W6OJ4gPRdMk0Qo-108" edge="1">
          <mxGeometry relative="1" as="geometry" />
        </mxCell>
        <mxCell id="7hNnC6W6OJ4gPRdMk0Qo-111" style="edgeStyle=orthogonalEdgeStyle;rounded=0;orthogonalLoop=1;jettySize=auto;html=1;exitX=0.5;exitY=1;exitDx=0;exitDy=0;entryX=0;entryY=0.5;entryDx=0;entryDy=0;" parent="1" source="7hNnC6W6OJ4gPRdMk0Qo-106" target="7hNnC6W6OJ4gPRdMk0Qo-110" edge="1">
          <mxGeometry relative="1" as="geometry" />
        </mxCell>
        <mxCell id="7hNnC6W6OJ4gPRdMk0Qo-106" value="Admin page" style="rounded=0;whiteSpace=wrap;html=1;" parent="1" vertex="1">
          <mxGeometry x="-175" y="940" width="120" height="60" as="geometry" />
        </mxCell>
        <mxCell id="7hNnC6W6OJ4gPRdMk0Qo-108" value="products admin CRUD Function" style="rounded=0;whiteSpace=wrap;html=1;" parent="1" vertex="1">
          <mxGeometry y="940" width="120" height="60" as="geometry" />
        </mxCell>
        <mxCell id="7hNnC6W6OJ4gPRdMk0Qo-110" value="Check Order Admin" style="rounded=0;whiteSpace=wrap;html=1;" parent="1" vertex="1">
          <mxGeometry y="1020" width="120" height="60" as="geometry" />
        </mxCell>
        <mxCell id="7hNnC6W6OJ4gPRdMk0Qo-116" style="edgeStyle=orthogonalEdgeStyle;rounded=0;orthogonalLoop=1;jettySize=auto;html=1;exitX=0.5;exitY=1;exitDx=0;exitDy=0;" parent="1" source="7hNnC6W6OJ4gPRdMk0Qo-112" target="7hNnC6W6OJ4gPRdMk0Qo-114" edge="1">
          <mxGeometry relative="1" as="geometry" />
        </mxCell>
        <mxCell id="7hNnC6W6OJ4gPRdMk0Qo-112" value="Past order" style="rounded=0;whiteSpace=wrap;html=1;" parent="1" vertex="1">
          <mxGeometry x="690" y="550" width="120" height="60" as="geometry" />
        </mxCell>
        <mxCell id="7hNnC6W6OJ4gPRdMk0Qo-114" value="Past order functionalities" style="rounded=0;whiteSpace=wrap;html=1;" parent="1" vertex="1">
          <mxGeometry x="690" y="780" width="120" height="60" as="geometry" />
        </mxCell>
      </root>
    </mxGraphModel>
  </diagram>
</mxfile>
